<?xml version="1.0" encoding="UTF-8" standalone="no"?>
<svg
   xmlns:dc="http://purl.org/dc/elements/1.1/"
   xmlns:cc="http://creativecommons.org/ns#"
   xmlns:rdf="http://www.w3.org/1999/02/22-rdf-syntax-ns#"
   xmlns:svg="http://www.w3.org/2000/svg"
   xmlns="http://www.w3.org/2000/svg"
   xmlns:sodipodi="http://sodipodi.sourceforge.net/DTD/sodipodi-0.dtd"
   xmlns:inkscape="http://www.inkscape.org/namespaces/inkscape"
   viewBox="0 0 348 348"
   fill="none"
   version="1.1"
   id="svg6"
   sodipodi:docname="Snack Attack.svg"
   inkscape:version="1.0.1 (3bc2e813f5, 2020-09-07)">
  <metadata
     id="metadata12">
    <rdf:RDF>
      <cc:Work
         rdf:about="">
        <dc:format>image/svg+xml</dc:format>
        <dc:type
           rdf:resource="http://purl.org/dc/dcmitype/StillImage" />
      </cc:Work>
    </rdf:RDF>
  </metadata>
  <defs
     id="defs10" />
  <sodipodi:namedview
     pagecolor="#ffffff"
     bordercolor="#666666"
     borderopacity="1"
     objecttolerance="10"
     gridtolerance="10"
     guidetolerance="10"
     inkscape:pageopacity="0"
     inkscape:pageshadow="2"
     inkscape:window-width="1366"
     inkscape:window-height="705"
     id="namedview8"
     showgrid="false"
     inkscape:zoom="1.545977"
     inkscape:cx="174.58862"
     inkscape:cy="174"
     inkscape:window-x="-8"
     inkscape:window-y="-8"
     inkscape:window-maximized="1"
     inkscape:current-layer="svg6" />
  <path
     d="M5.079 5.776h336.913v337.67H5.08z"
     stroke-width="2"
     stroke="#000"
     id="path2" />
  <g
     aria-label="SNACK
ATTACK"
     id="text839"
     style="font-size:78.7484px;line-height:1.25;font-family:Zorque;-inkscape-font-specification:Zorque;fill:#000000;stroke-width:1.96871">
    <path
       d="m 89.212987,133.30192 q 0,17.63964 -17.245899,17.63964 H 56.768647 q -1.889961,0 -3.307432,-0.62999 -1.417472,-0.70873 -2.362452,-1.73246 -0.944981,-1.10248 -1.417472,-2.4412 -0.47249,-1.41747 -0.47249,-2.91369 0,-1.41748 0.47249,-2.7562 0.472491,-1.41747 1.417472,-2.4412 1.023729,-1.10248 2.4412,-1.73246 1.496219,-0.70874 3.386181,-0.70874 H 72.83332 q 1.574968,0 2.283704,-0.86623 0.787484,-0.94498 0.787484,-1.96871 0,-1.10248 -0.787484,-2.04746 -0.708736,-0.94498 -2.283704,-0.94498 h -7.874839 q -8.111085,0 -12.206002,-3.93742 -4.094917,-3.93742 -4.094917,-12.521 0,-17.797133 17.403396,-17.797133 h 12.28475 q 1.96871,0 3.46493,0.708735 1.496219,0.629988 2.519948,1.732465 1.02373,1.023729 1.49622,2.441203 0.551239,1.33872 0.551239,2.75619 0,1.41747 -0.551239,2.83494 -0.47249,1.41747 -1.49622,2.51995 -1.023729,1.10248 -2.598697,1.81122 -1.496219,0.62998 -3.464929,0.62998 H 65.037229 q -1.574968,0 -2.283704,0.94498 -0.708735,0.86624 -0.708735,1.96871 0,1.02373 0.708735,1.96871 0.708736,0.86624 2.283704,0.86624 h 7.87484 q 8.34733,0 12.28475,4.01616 4.016168,4.01617 4.016168,12.59975 z"
       style="text-align:center;text-anchor:middle;stroke-width:1.96871"
       id="path843" />
    <path
       d="m 111.73496,111.01612 q -2.04746,0 -2.04746,2.04746 v 30.16064 q 0,4.25241 -1.81121,6.22112 -1.73247,1.88996 -5.74863,1.88996 -7.638598,0 -7.638598,-8.11108 v -42.83913 q 0,-4.882403 4.724904,-4.882403 h 43.469114 q 4.8824,0 4.8824,4.882403 v 42.83913 q 0,8.03233 -7.63859,8.03233 -7.6386,0 -7.6386,-8.03233 v -30.16064 q 0,-2.04746 -1.96871,-2.04746 z"
       style="text-align:center;text-anchor:middle;stroke-width:1.96871"
       id="path845" />
    <path
       d="m 203.24053,140.86176 q 0.315,0.78749 0.39375,1.57497 0.15749,0.78749 0.15749,1.41747 0,1.73247 -0.70873,3.14994 -0.70874,1.33872 -1.88996,2.2837 -1.18123,0.94498 -2.67745,1.49622 -1.49622,0.47249 -3.07119,0.47249 -4.48866,0 -6.53611,-4.96115 l -1.10248,-2.67744 h -19.45086 l -1.25997,2.67744 q -2.36245,4.96115 -6.77236,4.96115 -1.57497,0 -3.07119,-0.55124 -1.41747,-0.55124 -2.51995,-1.57496 -1.10248,-1.02373 -1.81121,-2.36246 -0.70874,-1.41747 -0.70874,-3.07118 0,-0.70874 0,-1.41747 0.0788,-0.70874 0.47249,-1.41748 l 8.42608,-18.66337 q 1.10248,-2.51995 2.83494,-3.77992 1.73247,-1.25997 3.85867,-1.25997 1.65372,0 3.07119,0.55123 1.49622,0.55124 2.5987,1.57497 1.18123,1.02373 1.81121,2.36245 0.70874,1.33873 0.70874,2.83495 0,1.73246 -0.55124,3.07118 l -0.86623,2.04746 h 7.48109 l -10.00104,-23.86076 q -0.39374,-0.86623 -0.47249,-1.57497 -0.0787,-0.70874 -0.0787,-1.41747 0,-1.65372 0.62999,-2.99244 0.70873,-1.338723 1.81121,-2.362452 1.18123,-1.023729 2.5987,-1.574968 1.41747,-0.551238 2.99244,-0.551238 2.20495,0 3.93742,1.259974 1.81121,1.259974 2.91369,3.779924 z"
       style="text-align:center;text-anchor:middle;stroke-width:1.96871"
       id="path847" />
    <path
       d="m 223.79369,150.94156 q -8.50482,0 -12.83599,-4.40991 -4.33116,-4.48866 -4.33116,-13.46598 v -19.6871 q 0,-8.97731 4.33116,-13.387225 4.33117,-4.488658 12.83599,-4.488658 h 25.51448 q 4.96115,0 7.16611,1.96871 2.20495,1.889961 2.20495,5.906133 0,4.01616 -2.20495,5.82738 -2.20496,1.81121 -7.16611,1.81121 h -25.12073 q -2.20496,0 -2.28371,2.12621 v 19.92334 q 0,2.28371 2.28371,2.28371 h 25.35698 q 4.96115,0 7.00861,1.96871 2.1262,1.88996 2.1262,5.82738 0,4.01617 -2.1262,5.90613 -2.04746,1.88996 -7.00861,1.88996 z"
       style="text-align:center;text-anchor:middle;stroke-width:1.96871"
       id="path849" />
    <path
       d="m 279.15368,143.61796 q 0,3.77992 -2.28371,5.74863 -2.2837,1.88996 -5.35489,1.88996 -3.14994,0 -5.43364,-1.88996 -2.20495,-1.96871 -2.20495,-5.74863 v -40.79167 q 0,-3.622429 2.20495,-5.591138 2.2837,-1.96871 5.43364,-1.96871 3.07119,0 5.35489,1.96871 2.28371,1.968709 2.28371,5.591138 v 13.07223 l 12.52099,-17.718388 q 1.02373,-1.496219 2.36245,-2.204955 1.41747,-0.708735 3.54368,-0.708735 3.77992,0 5.82738,2.204955 2.12621,2.126206 2.12621,5.433643 0,2.83494 -1.73247,4.80365 l -12.83598,14.4897 12.91473,16.53717 q 1.81122,2.2837 1.81122,4.80365 0,3.54368 -2.20496,5.66988 -2.20495,2.04746 -5.74863,2.04746 -1.73247,0 -3.30744,-0.70873 -1.49621,-0.70874 -2.59869,-2.28371 l -12.67849,-17.71839 z"
       style="text-align:center;text-anchor:middle;stroke-width:1.96871"
       id="path851" />
    <path
       d="m 88.425656,239.29726 q 0.314993,0.78749 0.393742,1.57497 0.157497,0.78748 0.157497,1.41747 0,1.73247 -0.708736,3.14994 -0.708736,1.33872 -1.889962,2.2837 -1.181226,0.94498 -2.677445,1.49622 -1.49622,0.47249 -3.071188,0.47249 -4.488658,0 -6.536117,-4.96115 L 72.99097,242.05346 H 53.540116 l -1.259975,2.67744 q -2.362452,4.96115 -6.772362,4.96115 -1.574968,0 -3.071188,-0.55124 -1.417471,-0.55124 -2.519948,-1.57497 -1.102478,-1.02373 -1.811213,-2.36245 -0.708736,-1.41747 -0.708736,-3.07119 0,-0.70873 0,-1.41747 0.07875,-0.70873 0.47249,-1.41747 l 8.426079,-18.66337 q 1.102477,-2.51995 2.834942,-3.77992 1.732465,-1.25998 3.858672,-1.25998 1.653716,0 3.071187,0.55124 1.49622,0.55124 2.598697,1.57497 1.181226,1.02373 1.811214,2.36245 0.708735,1.33872 0.708735,2.83494 0,1.73247 -0.551239,3.07119 l -0.866232,2.04746 h 7.481098 L 57.24129,204.17548 q -0.393742,-0.86624 -0.47249,-1.57497 -0.07875,-0.70874 -0.07875,-1.41747 0,-1.65372 0.629988,-2.99244 0.708735,-1.33873 1.811213,-2.36245 1.181226,-1.02373 2.598697,-1.57497 1.417471,-0.55124 2.992439,-0.55124 2.204955,0 3.93742,1.25997 1.811213,1.25998 2.913691,3.77993 z"
       style="text-align:center;text-anchor:middle;stroke-width:1.96871"
       id="path853" />
    <path
       d="m 111.49876,242.05346 q 0,3.77992 -2.28371,5.74863 -2.2837,1.88996 -5.43364,1.88996 -3.07118,0 -5.354888,-1.88996 -2.204955,-1.96871 -2.204955,-5.74863 v -32.68059 h -5.354891 q -3.622427,0 -5.669885,-2.2837 -1.96871,-2.28371 -1.96871,-5.43364 0,-3.14994 1.96871,-5.43364 2.047458,-2.28371 5.669885,-2.28371 h 25.829474 q 3.62243,0 5.66988,2.28371 2.04746,2.2837 2.04746,5.43364 0,3.14993 -2.04746,5.43364 -2.04745,2.2837 -5.66988,2.2837 h -5.19739 z"
       style="text-align:center;text-anchor:middle;stroke-width:1.96871"
       id="path855" />
    <path
       d="m 155.44026,242.05346 q 0,3.77992 -2.2837,5.74863 -2.28371,1.88996 -5.43364,1.88996 -3.07119,0 -5.35489,-1.88996 -2.20496,-1.96871 -2.20496,-5.74863 v -32.68059 h -5.35489 q -3.62243,0 -5.66988,-2.2837 -1.96871,-2.28371 -1.96871,-5.43364 0,-3.14994 1.96871,-5.43364 2.04745,-2.28371 5.66988,-2.28371 h 25.82948 q 3.62242,0 5.66988,2.28371 2.04746,2.2837 2.04746,5.43364 0,3.14993 -2.04746,5.43364 -2.04746,2.2837 -5.66988,2.2837 h -5.1974 z"
       style="text-align:center;text-anchor:middle;stroke-width:1.96871"
       id="path857" />
    <path
       d="m 213.63517,239.29726 q 0.315,0.78749 0.39375,1.57497 0.15749,0.78748 0.15749,1.41747 0,1.73247 -0.70873,3.14994 -0.70874,1.33872 -1.88996,2.2837 -1.18123,0.94498 -2.67745,1.49622 -1.49622,0.47249 -3.07119,0.47249 -4.48866,0 -6.53611,-4.96115 l -1.10248,-2.67744 h -19.45086 l -1.25997,2.67744 q -2.36245,4.96115 -6.77236,4.96115 -1.57497,0 -3.07119,-0.55124 -1.41747,-0.55124 -2.51995,-1.57497 -1.10248,-1.02373 -1.81121,-2.36245 -0.70874,-1.41747 -0.70874,-3.07119 0,-0.70873 0,-1.41747 0.0787,-0.70873 0.47249,-1.41747 l 8.42608,-18.66337 q 1.10248,-2.51995 2.83494,-3.77992 1.73247,-1.25998 3.85868,-1.25998 1.65371,0 3.07118,0.55124 1.49622,0.55124 2.5987,1.57497 1.18123,1.02373 1.81121,2.36245 0.70874,1.33872 0.70874,2.83494 0,1.73247 -0.55124,3.07119 l -0.86623,2.04746 h 7.4811 l -10.00105,-23.86076 q -0.39374,-0.86624 -0.47249,-1.57497 -0.0787,-0.70874 -0.0787,-1.41747 0,-1.65372 0.62999,-2.99244 0.70873,-1.33873 1.81121,-2.36245 1.18123,-1.02373 2.5987,-1.57497 1.41747,-0.55124 2.99244,-0.55124 2.20495,0 3.93742,1.25997 1.81121,1.25998 2.91369,3.77993 z"
       style="text-align:center;text-anchor:middle;stroke-width:1.96871"
       id="path859" />
    <path
       d="m 234.18833,249.37706 q -8.50482,0 -12.83598,-4.40991 -4.33117,-4.48866 -4.33117,-13.46598 v -19.6871 q 0,-8.97732 4.33117,-13.38723 4.33116,-4.48866 12.83598,-4.48866 h 25.51448 q 4.96115,0 7.16611,1.96871 2.20495,1.88997 2.20495,5.90613 0,4.01617 -2.20495,5.82739 -2.20496,1.81121 -7.16611,1.81121 h -25.12073 q -2.20496,0 -2.28371,2.12621 v 19.92334 q 0,2.2837 2.28371,2.2837 h 25.35698 q 4.96115,0 7.00861,1.96871 2.1262,1.88996 2.1262,5.82738 0,4.01617 -2.1262,5.90613 -2.04746,1.88997 -7.00861,1.88997 z"
       style="text-align:center;text-anchor:middle;stroke-width:1.96871"
       id="path861" />
    <path
       d="m 289.54832,242.05346 q 0,3.77992 -2.28371,5.74863 -2.2837,1.88996 -5.35489,1.88996 -3.14993,0 -5.43364,-1.88996 -2.20495,-1.96871 -2.20495,-5.74863 v -40.79167 q 0,-3.62243 2.20495,-5.59114 2.28371,-1.96871 5.43364,-1.96871 3.07119,0 5.35489,1.96871 2.28371,1.96871 2.28371,5.59114 v 13.07223 l 12.52099,-17.71839 q 1.02373,-1.49622 2.36245,-2.20496 1.41747,-0.70873 3.54368,-0.70873 3.77992,0 5.82738,2.20495 2.12621,2.12621 2.12621,5.43364 0,2.83495 -1.73247,4.80366 l -12.83598,14.4897 12.91473,16.53716 q 1.81122,2.28371 1.81122,4.80366 0,3.54367 -2.20496,5.66988 -2.20495,2.04746 -5.74863,2.04746 -1.73247,0 -3.30744,-0.70874 -1.49621,-0.70873 -2.59869,-2.2837 l -12.67849,-17.71839 z"
       style="text-align:center;text-anchor:middle;stroke-width:1.96871"
       id="path863" />
  </g>
</svg>
